<?xml version="1.0" encoding="UTF-8" standalone="no"?>
<!-- Created with Inkscape (http://www.inkscape.org/) -->

<svg
   version="1.1"
   id="svg2"
   width="374.18668"
   height="137.22667"
   viewBox="0 0 374.18668 137.22667"
   sodipodi:docname="VC-Secondary-Stacked-1c-red.eps"
   xmlns:inkscape="http://www.inkscape.org/namespaces/inkscape"
   xmlns:sodipodi="http://sodipodi.sourceforge.net/DTD/sodipodi-0.dtd"
   xmlns="http://www.w3.org/2000/svg"
   xmlns:svg="http://www.w3.org/2000/svg">
  <defs
     id="defs6" />
  <sodipodi:namedview
     id="namedview4"
     pagecolor="#ffffff"
     bordercolor="#000000"
     borderopacity="0.25"
     inkscape:showpageshadow="2"
     inkscape:pageopacity="0.0"
     inkscape:pagecheckerboard="0"
     inkscape:deskcolor="#d1d1d1" />
  <g
     id="g8"
     inkscape:groupmode="layer"
     inkscape:label="ink_ext_XXXXXX"
     transform="matrix(1.3333333,0,0,-1.3333333,0,137.22667)">
    <g
       id="g10"
       transform="scale(0.1)">
      <path
         d="m 123.402,401.355 c 48.25,37.665 109.727,56.188 178.442,56.188 35.699,0 85.937,-7.301 117.027,-15.867 7.922,-1.985 12.551,-3.301 18.488,-2.656 0.688,-15.223 3.965,-56.86 9.235,-97.168 -3.281,-4.598 -13.207,-5.247 -17.821,-1.309 -9.902,44.926 -39.699,96.496 -135.519,96.496 -101.156,0 -187.047,-64.098 -187.047,-200.945 0,-138.7659 87.91,-215.4534 196.281,-215.4534 85.293,0 122.973,55.5196 138.176,94.4764 4.629,3.332 14.547,2.043 17.195,-2.609 C 453.215,78.1406 436.039,34.5469 426.113,21.9492 418.207,20.6406 410.227,17.9883 402.988,15.3281 388.449,10.0313 340.855,0.148438 298.539,0.148438 239.043,0.148438 182.207,12.0117 133.938,44.4414 81.0781,80.7617 40.1055,140.945 40.1055,226.184 c 0,73.371 33.0586,136.164 83.2965,175.171"
         style="fill:#bf2519;fill-opacity:1;fill-rule:nonzero;stroke:none"
         id="path12" />
      <path
         d="m 1261.77,106.18 c -13.36,-34.1058 -30.74,-58.1136 -44.1,-66.1136 -10.69,-6 -24.69,-8.6875 -81.47,-8.6875 -52.76,0 -65.48,8.0117 -72.8,15.3555 -12.04,12.6992 -14.04,30.1015 -14.04,72.1286 v 232.481 c 0,70.105 1.36,80.804 40.78,84.097 l 16.01,1.368 c 3.99,2.656 2.67,14.695 -1.36,16.644 -33.38,-1.277 -56.08,-1.949 -82.12,-1.949 -26.752,0 -49.44,0.672 -86.85,1.949 -3.996,-1.949 -5.332,-13.988 -1.347,-16.644 l 16.699,-1.368 c 42.098,-3.293 43.422,-13.992 43.422,-84.097 V 110.859 c 0,-70.0934 -1.324,-79.4801 -40.074,-83.5192 l -20.047,-1.9609 c -3.985,-4.0391 -2.649,-14.6992 1.347,-16.68749 37.41,1.29687 58.774,1.98829 86.85,1.98829 h 61.44 c 68.79,0 132.2,-0.69142 166.26,-1.98829 9.41,18.02739 28.09,86.13669 28.09,93.49659 0,4.652 -12.67,7.328 -16.69,3.992"
         style="fill:#bf2519;fill-opacity:1;fill-rule:nonzero;stroke:none"
         id="path14" />
      <path
         d="m 708.801,20.7305 c -131.555,0 -179.641,128.2035 -179.641,227.0545 0,146.258 90.137,193.699 159.61,193.699 127.578,0 176.328,-118.89 176.328,-229.097 0,-131.5979 -76.133,-191.6565 -156.297,-191.6565 M 700.145,462.184 C 562.535,462.184 462.34,359.977 462.34,226.387 462.34,106.18 551.871,0 700.145,0 c 128.878,0 231.75,98.1797 231.75,233.086 0,117.543 -77.465,229.098 -231.75,229.098"
         style="fill:#bf2519;fill-opacity:1;fill-rule:nonzero;stroke:none"
         id="path16" />
      <path
         d="m 1604.31,106.18 c -13.37,-34.1058 -30.74,-58.1136 -44.08,-66.1136 -10.67,-6 -24.68,-8.6875 -81.48,-8.6875 -52.77,0 -65.43,8.0117 -72.79,15.3555 -12.02,12.6992 -14.03,30.1015 -14.03,72.1286 v 232.481 c 0,70.105 1.34,80.804 40.73,84.097 l 16.08,1.368 c 3.95,2.656 2.66,14.695 -1.37,16.644 -33.38,-1.277 -56.12,-1.949 -82.15,-1.949 -26.72,0 -49.42,0.672 -86.84,1.949 -4.01,-1.949 -5.31,-13.988 -1.32,-16.644 l 16.69,-1.368 c 42.07,-3.293 43.42,-13.992 43.42,-84.097 V 110.859 c 0,-70.0934 -1.35,-79.4801 -40.07,-83.5192 l -20.04,-1.9609 c -3.99,-4.0391 -2.69,-14.6992 1.32,-16.68749 37.42,1.29687 58.79,1.98829 86.84,1.98829 h 61.44 c 68.81,0 132.24,-0.69142 166.31,-1.98829 9.37,18.02739 28.04,86.13669 28.04,93.49659 0,4.652 -12.65,7.328 -16.7,3.992"
         style="fill:#bf2519;fill-opacity:1;fill-rule:nonzero;stroke:none"
         id="path18" />
      <path
         d="m 2769.62,106.18 c -17.36,-34.7386 -35.38,-58.1136 -47.45,-64.7972 -14.68,-7.3164 -34.02,-10.0039 -85.49,-10.0039 -58.76,0 -72.76,7.3555 -80.79,15.3555 -10.69,11.3672 -12.7,34.0547 -12.7,69.4536 v 94.195 c 0,17.367 2.01,18.012 22.06,18.012 h 38.71 c 26.05,0 42.07,-0.645 51.47,-3.329 13.34,-3.332 17.99,-13.378 20.67,-25.386 l 6.03,-26.039 c 3.35,-4.02 14.67,-4.02 17.35,0.66 0,14.672 -2.68,40.105 -2.68,64.125 0,25.398 2.68,51.418 2.68,67.461 -2.68,4.672 -14,4.672 -17.35,0.676 l -5.38,-27.418 c -3.33,-16.661 -7.98,-20.684 -15.99,-23.34 -8.03,-2.672 -28.72,-4.024 -56.8,-4.024 h -38.71 c -20.05,0 -22.06,0 -22.06,18.731 v 133.586 c 0,25.351 0,26.703 20.05,26.703 h 48.1 c 29.39,0 50.76,-0.684 64.76,-4.016 34.76,-8.676 40.75,-32.062 50.77,-63.472 3.33,-3.997 14.04,-2.657 16.71,1.335 -2.67,29.395 -6.69,77.461 -10.69,88.805 -8,-1.949 -47.41,-1.949 -90.17,-1.949 h -125.57 c -27.39,0 -50.09,0.672 -78.81,1.949 -4.02,-1.949 -5.33,-13.988 -1.32,-16.644 l 10.66,-1.368 c 39.43,-4.64 40.77,-14.648 40.77,-84.097 V 110.859 c 0,-70.0934 -3.33,-80.1129 -41.46,-83.5192 l -22.01,-1.9609 c -4.03,-4.0391 -2.68,-14.6992 1.35,-16.68749 39.36,1.29687 62.12,1.98829 90.82,1.98829 h 60.12 c 59.41,0 118.86,-0.69142 178.99,-1.98829 8.7,18.02739 25.38,69.42189 30.04,92.80859 -2.65,6.039 -12.01,8.016 -16.68,4.68"
         style="fill:#bf2519;fill-opacity:1;fill-rule:nonzero;stroke:none"
         id="path20" />
      <path
         d="m 2344.95,188.34 c -39.42,0 -76.13,0.617 -95.57,1.992 -4.62,-1.992 -5.29,-14.027 0,-16.691 l 29.43,-3.348 c 41.4,-4.695 43.41,-8.688 43.41,-64.785 V 78.8125 c 0,-21.3594 -3.34,-33.4102 -6.69,-38.0625 -7.32,-11.418 -32.09,-20.0508 -73.45,-20.0508 -134.27,0 -200.4,100.8788 -200.4,229.0818 0,100.16 56.79,192.34 186.37,192.34 68.11,0 118.21,-22.687 136.91,-94.82 4.01,-3.981 16.04,-3.36 18.03,2.008 -6.03,40.074 -10.05,74.824 -10.05,96.847 -7.98,-1.347 -28.68,3.313 -41.35,6.028 -11.38,2.656 -46.77,10.004 -84.86,10.004 -100.82,0 -166.99,-31.383 -211.74,-78.11 -41.4,-44.121 -60.07,-101.574 -60.07,-158.348 0,-58.757 21.35,-111.546 61.44,-151.6128 C 2087.77,22 2160.55,0 2240.06,0 c 36.07,0 84.17,8.01953 119.57,17.3594 12.67,3.3398 24.68,6.0117 32.72,6.0117 2.67,2.0078 2.67,5.9609 0.64,8.0078 -11.99,4.6641 -16.03,20.6797 -16.03,47.4336 v 37.3595 c 0,34.066 0.69,52.805 28.73,56.164 l 10.69,1.305 c 4.69,4.023 4.04,14 -0.67,16.691 -22.02,-1.375 -44.73,-1.992 -70.76,-1.992"
         style="fill:#bf2519;fill-opacity:1;fill-rule:nonzero;stroke:none"
         id="path22" />
      <path
         d="m 1960.92,106.18 c -17.37,-34.7386 -35.38,-58.1136 -47.41,-64.7972 -14.72,-7.3164 -34.06,-10.0039 -85.51,-10.0039 -58.73,0 -72.78,7.3555 -80.8,15.3555 -10.71,11.3672 -12.71,34.0547 -12.71,69.4536 v 94.195 c 0,17.367 2,18.012 22.05,18.012 h 38.74 c 26.05,0 42.07,-0.645 51.44,-3.329 13.34,-3.332 18.03,-13.378 20.7,-25.386 l 6,-26.039 c 3.35,-4.02 14.72,-4.02 17.38,0.66 0,14.672 -2.66,40.105 -2.66,64.125 0,25.398 2.66,51.418 2.66,67.461 -2.66,4.672 -14.03,4.672 -17.38,0.676 l -5.36,-27.418 c -3.31,-16.661 -8,-20.684 -16.03,-23.34 -7.97,-2.672 -28.71,-4.024 -56.75,-4.024 h -38.74 c -20.05,0 -22.05,0 -22.05,18.731 v 133.586 c 0,25.351 0,26.703 20.06,26.703 h 48.08 c 29.39,0 50.77,-0.684 64.79,-4.016 34.74,-8.676 40.73,-32.062 50.78,-63.472 3.3,-3.997 14.01,-2.657 16.64,1.335 -2.63,29.395 -6.65,77.461 -10.65,88.805 -8.02,-1.949 -47.42,-1.949 -90.16,-1.949 h -125.57 c -27.41,0 -50.11,0.672 -78.8,1.949 -4.01,-1.949 -5.36,-13.988 -1.36,-16.644 l 10.71,-1.368 c 39.37,-4.64 40.73,-14.648 40.73,-84.097 V 110.859 c 0,-70.0934 -3.35,-80.1129 -41.44,-83.5192 l -22.02,-1.9609 c -3.99,-4.0391 -2.67,-14.6992 1.35,-16.68749 39.37,1.29687 62.11,1.98829 90.83,1.98829 h 60.11 c 59.43,0 118.86,-0.69142 179,-1.98829 8.66,18.02739 25.37,69.42189 30.06,92.80859 -2.68,6.039 -12.01,8.016 -16.71,4.68"
         style="fill:#bf2519;fill-opacity:1;fill-rule:nonzero;stroke:none"
         id="path24" />
      <path
         d="M 68.5273,948.547 C 53.3125,985.563 43.3906,999.418 15,1002.71 l -11.89453,1.37 c -4.64844,3.98 -3.968751,13.21 1.30078,16.48 19.15625,-1.3 40.33595,-1.95 68.72655,-1.95 29.0862,0 52.2032,0.65 79.9962,1.95 4.621,-2.65 5.93,-12.5 1.309,-16.48 l -9.918,-1.37 c -25.137,-3.292 -30.403,-7.276 -31.047,-12.534 1.324,-6.641 12.527,-42.317 33.054,-92.539 30.399,-76.711 60.825,-152.688 93.868,-228.055 20.457,43.676 48.21,111.699 63.421,146.766 19.18,44.941 50.262,119.613 61.489,148.043 5.281,13.879 5.922,21.172 5.922,25.785 0,4.648 -6.594,9.934 -29.735,12.534 l -11.871,1.37 c -4.644,3.98 -3.312,13.83 1.317,16.48 18.48,-1.3 43.597,-1.95 68.738,-1.95 21.812,0 42.304,0.65 64.113,1.95 4.613,-2.65 4.613,-13.21 1.316,-16.48 l -19.828,-1.37 C 429.43,1001.41 419.5,993.453 410.922,979.586 392.387,948.547 366.613,894.98 336.883,827.59 l -35.695,-81.281 c -26.465,-60.844 -57.493,-137.543 -68.735,-172.504 -1.973,-1.356 -4.637,-2.016 -7.285,-2.016 -3.328,0 -6.602,0.66 -9.926,2.016 -7.238,27.726 -19.16,60.121 -30.379,87.886 L 68.5273,948.547"
         style="fill:#bf2519;fill-opacity:1;fill-rule:nonzero;stroke:none"
         id="path26" />
      <path
         d="m 549.703,778.688 h -81.32 c -18.516,0 -19.172,0.644 -13.867,15.82 l 41.621,115.035 C 503.445,929.379 510,945.266 512,948.547 h 1.313 c 4.003,-7.981 9.91,-25.789 15.246,-41.641 L 564.25,799.191 c 5.918,-17.91 4.621,-20.503 -14.547,-20.503 m 482.427,-101.86 c -13.22,-33.652 -30.41,-57.453 -43.622,-65.387 -10.578,-5.929 -24.488,-8.605 -80.641,-8.605 -52.183,0 -64.777,7.906 -72.047,15.223 -11.922,12.57 -13.882,29.726 -13.882,71.382 v 230.012 c 0,69.422 1.332,79.965 40.308,83.257 l 15.859,1.37 c 3.965,2.58 2.68,14.53 -1.332,16.48 -33.039,-1.3 -55.484,-1.95 -81.289,-1.95 -26.421,0 -48.89,0.65 -85.937,1.95 -3.938,-1.95 -5.262,-13.9 -1.27,-16.48 l 16.516,-1.37 c 41.629,-3.292 42.945,-13.835 42.945,-83.257 V 681.496 c 0,-19.133 1.004,-39.324 -2.8,-58.266 -4.715,-23.441 -35.805,-28.89 -55.219,-22.699 -7.699,2.496 -15.336,6.739 -20.633,12.926 -5.625,6.633 -9.148,14.648 -12.68,22.539 -4.847,10.746 -8.582,21.797 -12.386,32.969 l -90.543,265.711 c -9.914,29.062 -20.469,59.465 -29.051,88.574 -1.344,4.61 -5.965,5.91 -9.953,5.91 -7.246,-8.6 -18.5,-20.49 -34.375,-25.08 1.992,-10.627 -1.981,-23.154 -11.219,-46.978 L 421.434,778.688 c -27.746,-74.063 -46.25,-116.997 -58.157,-147.415 -9.214,-23.785 -23.754,-31.085 -39.648,-32.406 l -21.824,-2.004 c -3.957,-3.25 -2.629,-13.82 1.332,-16.468 17.843,0.671 41.636,1.96 63.453,1.96 31.082,-0.683 51.551,-0.683 68.738,-1.96 5.934,2.648 5.934,13.218 1.328,16.468 l -21.82,2.004 c -15.859,1.321 -19.137,5.301 -19.137,13.246 0,7.262 4.606,25.078 14.504,54.875 l 23.145,69.383 c 4.613,13.863 8.601,15.84 25.132,15.84 h 99.778 c 19.863,0 22.496,-1.977 27.133,-16.539 l 29.066,-89.848 c 5.277,-15.867 8.574,-27.765 8.574,-35.082 0,-6.574 -9.242,-10.554 -23.125,-11.875 l -19.152,-2.004 c -4.621,-3.25 -3.977,-13.82 1.324,-16.468 19.164,0.671 44.262,1.96 76.008,1.96 21.773,0 43.488,-0.792 65.223,-1.042 24.066,-0.176 48.125,1.042 72.175,1.042 h 60.813 c 68.098,0 130.875,-0.683 164.593,-1.96 9.27,17.828 27.75,85.25 27.75,92.507 0,4.614 -12.51,7.305 -16.51,3.926"
         style="fill:#bf2519;fill-opacity:1;fill-rule:nonzero;stroke:none"
         id="path28" />
      <path
         d="m 1107.41,919.457 c 0,68.738 -1.3,78.684 -40.29,83.263 l -10.59,1.36 c -3.97,2.58 -2.66,14.53 1.31,16.49 28.44,-1.3 50.88,-1.96 78,-1.96 h 124.27 c 42.29,0 81.27,0 89.23,1.96 3.98,-11.26 7.93,-58.808 10.59,-87.906 -2.66,-3.953 -13.28,-5.289 -16.51,-1.316 -9.91,31.066 -15.92,54.222 -50.27,62.793 -13.87,3.285 -35.01,4 -64.11,4 h -47.59 c -19.8,0 -19.8,-1.344 -19.8,-26.457 V 839.48 c 0,-18.542 1.97,-18.542 21.81,-18.542 h 38.32 c 27.77,0 48.24,1.378 56.14,3.98 7.96,2.68 12.58,6.629 15.89,23.148 l 5.3,27.122 c 3.29,3.953 14.5,3.953 17.18,-0.696 0,-15.836 -2.68,-41.633 -2.68,-66.769 0,-23.739 2.68,-48.871 2.68,-63.434 -2.68,-4.625 -13.89,-4.625 -17.18,-0.617 l -5.96,25.734 c -2.65,11.875 -7.27,21.824 -20.49,25.11 -9.25,2.672 -25.12,3.304 -50.88,3.304 h -38.32 c -19.84,0 -21.81,-0.632 -21.81,-17.816 v -93.223 c 0,-35 1.97,-57.511 12.51,-68.722 7.95,-7.922 21.83,-15.223 79.98,-15.223 50.91,0 70.06,2.676 84.64,9.949 11.86,6.617 29.74,29.719 46.88,64.043 4.65,3.379 13.93,1.36 16.53,-4.598 -4.62,-23.085 -21.13,-74.007 -29.69,-91.847 -59.52,1.289 -118.36,1.988 -177.18,1.988 h -59.48 c -28.43,0 -50.89,-0.699 -89.91,-1.988 -3.94,1.988 -5.28,12.558 -1.3,16.48 l 21.82,2.004 c 37.64,3.297 40.96,13.235 40.96,82.629 v 237.961"
         style="fill:#bf2519;fill-opacity:1;fill-rule:nonzero;stroke:none"
         id="path30" />
      <path
         d="m 1781.19,694.699 c 0,-19.82 0.82,-94.195 2.03,-116.898 -1.31,-3.981 -4.89,-7.071 -14.99,-7.66 -2.45,-0.153 -61.29,81.941 -66.39,89.023 -13.39,18.766 -29.03,38.363 -43.12,56.59 -45.14,58.473 -49.21,61.219 -94.99,119.176 -26.29,33.277 -53.73,66.129 -78.75,100.367 h -1.32 c -2.62,-7.922 -3.3,-23.098 -3.3,-42.93 V 748.242 c 0,-31.047 0.68,-116.969 11.92,-136.812 3.93,-7.25 17.15,-11.27 33.67,-12.563 l 20.52,-2.004 c 3.94,-5.242 3.31,-13.215 -1.34,-16.48 -29.74,1.289 -52.85,1.972 -77.32,1.972 -27.75,0 -45.63,-0.683 -68.72,-1.972 -4.64,3.265 -5.31,12.558 -1.34,16.48 l 17.82,2.004 c 15.2,1.981 25.8,5.973 29.11,13.235 9.25,23.828 8.58,104.421 8.58,136.14 v 191.047 c 0,18.5 -0.64,32.395 -14.53,47.598 -9.24,9.23 -25.13,13.833 -40.98,15.833 l -11.27,1.36 c -3.94,3.96 -3.94,13.83 1.34,16.49 27.75,-1.96 68,-2.56 79.91,-2.56 10.57,0 21.8,0.68 30.38,1.96 13.22,-33.665 35.89,-57.111 75.05,-110.958 l 79.96,-102.797 c 44.06,-57.106 66.13,-87.399 97.2,-119.133 l 0.89,1.977 c 2.64,3.265 3.07,11.875 3.07,25.777 l -0.19,137.863 c 0,31.043 -0.65,116.985 -13.24,136.813 -3.94,5.922 -14.52,9.91 -40.96,13.208 l -11.25,1.36 c -4.62,3.96 -3.95,14.53 1.33,16.49 30.42,-1.3 52.89,-1.96 78.03,-1.96 28.39,0 45.58,0.66 68.04,1.96 5.3,-3.27 5.3,-12.53 1.34,-16.49 l -9.25,-1.36 c -21.15,-3.298 -34.38,-8.579 -37.03,-13.837 -11.25,-23.852 -9.91,-105.785 -9.91,-136.184 v -158"
         style="fill:#bf2519;fill-opacity:1;fill-rule:nonzero;stroke:none"
         id="path32" />
      <path
         d="m 1897.29,972.996 c 48.25,37.664 109.73,56.184 178.44,56.184 35.7,0 85.94,-7.3 117.03,-15.87 7.92,-1.98 12.55,-3.3 18.48,-2.65 0.69,-15.226 3.97,-56.863 9.24,-97.168 -3.28,-4.597 -13.21,-5.25 -17.82,-1.312 -9.9,44.929 -39.7,96.5 -135.52,96.5 -101.16,0 -187.05,-64.102 -187.05,-200.95 0,-138.765 87.91,-215.449 196.28,-215.449 85.3,0 122.98,55.52 138.18,94.473 4.63,3.336 14.54,2.043 17.19,-2.609 -4.64,-34.368 -21.81,-77.961 -31.74,-90.559 -7.91,-1.305 -15.89,-3.953 -23.12,-6.617 -14.54,-5.297 -62.14,-15.18 -104.46,-15.18 -59.49,0 -116.33,11.859 -164.6,44.289 -52.86,36.32 -93.83,96.508 -93.83,181.742 0,73.371 33.06,136.164 83.3,175.176"
         style="fill:#bf2519;fill-opacity:1;fill-rule:nonzero;stroke:none"
         id="path34" />
      <path
         d="m 2615.03,778.688 h -81.35 c -18.49,0 -19.14,0.644 -13.86,15.82 l 41.63,115.035 c 7.26,19.836 13.9,35.723 15.88,39.004 h 1.32 c 3.95,-7.981 9.92,-25.789 15.19,-41.641 l 35.72,-107.715 c 5.97,-17.91 4.63,-20.503 -14.53,-20.503 m 188.36,-181.825 -17.86,2.004 c -28.41,3.324 -37,13.246 -56.17,70.098 l -90.52,265.711 c -9.94,29.062 -20.51,59.465 -29.11,88.574 -1.34,4.61 -5.96,5.91 -9.9,5.91 -7.33,-8.6 -18.53,-20.49 -34.41,-25.08 1.98,-10.627 -2,-23.154 -11.21,-46.978 l -67.45,-178.414 c -27.75,-74.063 -46.25,-116.997 -58.16,-147.415 -3.56,-9.07 -8.92,-17.703 -16.54,-23.812 -8.21,-6.672 -18.3,-8.484 -28.67,-7.535 -8.66,0.781 -18.01,1.922 -24.54,8.262 -6.2,6.082 -8.46,15.097 -9.61,23.402 -0.66,4.816 -0.88,9.73 -1.24,14.551 -0.81,12.297 -0.69,24.418 -0.69,36.66 v 235.351 c 0,70.043 1.32,81.266 40.33,84.558 l 16.53,1.37 c 3.96,2.58 2.64,14.53 -1.32,16.48 -33.04,-1.3 -55.54,-1.95 -81.94,-1.95 -27.8,0 -50.28,0.65 -83.32,1.95 -3.94,-1.95 -5.29,-13.9 -1.29,-16.48 l 16.5,-1.37 c 39.01,-3.292 40.31,-14.515 40.31,-84.558 V 682.801 c 0,-70.016 -1.3,-79.266 -40.31,-83.934 l -16.5,-2.004 c -4,-3.937 -2.65,-14.508 1.29,-16.468 33.04,1.277 55.52,1.96 83.32,1.96 25.35,0 50.73,-1.164 76.1,-0.792 11.62,0.136 23.29,1.07 34.88,0.792 31.09,-0.683 51.59,-0.683 68.75,-1.96 5.97,2.648 5.97,13.218 1.33,16.468 l -21.78,2.004 c -15.89,1.321 -19.19,5.301 -19.19,13.246 0,7.262 4.63,25.078 14.53,54.875 l 23.13,69.383 c 4.65,13.863 8.59,15.84 25.12,15.84 h 99.83 c 19.83,0 22.48,-1.977 27.09,-16.539 l 29.09,-89.848 c 5.3,-15.867 8.6,-27.765 8.6,-35.082 0,-6.574 -9.28,-10.554 -23.13,-11.875 l -19.17,-2.004 c -4.67,-3.25 -3.97,-13.82 1.28,-16.468 19.2,0.671 44.32,1.96 76.04,1.96 29.72,0 52.9,-0.683 79.98,-1.96 3.3,2.648 4.64,13.218 0,16.468"
         style="fill:#bf2519;fill-opacity:1;fill-rule:nonzero;stroke:none"
         id="path36" />
    </g>
  </g>
</svg>
